<svg width="10" height="10" viewBox="0 0 10 10" fill="none" xmlns="http://www.w3.org/2000/svg">
<path d="M7.74443 2.18889C7.90095 2.03988 8.10924 1.9575 8.32534 1.95913C8.54144 1.96077 8.74846 2.04629 8.90271 2.19765C9.05695 2.34902 9.14637 2.55438 9.15208 2.77041C9.15779 2.98645 9.07935 3.19625 8.93332 3.35555L4.49999 8.9C4.42376 8.98211 4.33175 9.048 4.22947 9.09374C4.12719 9.13948 4.01673 9.16412 3.90471 9.1662C3.79269 9.16827 3.6814 9.14773 3.5775 9.10581C3.47359 9.06389 3.37921 9.00145 3.29999 8.92222L0.359989 5.98222C0.278114 5.90593 0.212445 5.81393 0.166899 5.71171C0.121352 5.60949 0.096861 5.49914 0.0948868 5.38725C0.0929126 5.27535 0.113496 5.16421 0.155408 5.06045C0.19732 4.95668 0.259703 4.86242 0.338835 4.78329C0.417967 4.70416 0.512227 4.64177 0.615991 4.59986C0.719756 4.55795 0.8309 4.53737 0.942792 4.53934C1.05468 4.54132 1.16503 4.56581 1.26725 4.61135C1.36947 4.6569 1.46148 4.72257 1.53777 4.80444L3.86443 7.13L7.72332 2.21333C7.73027 2.20478 7.73769 2.19662 7.74554 2.18889H7.74443Z" fill="black"/>
</svg>
