<svg width="12" height="13" viewBox="0 0 12 13" fill="none" xmlns="http://www.w3.org/2000/svg">
<path d="M8.57143 11.375V12.3906C8.57143 12.7272 8.28362 13 7.92857 13H0.642857C0.287813 13 0 12.7272 0 12.3906V3.04688C0 2.71032 0.287813 2.4375 0.642857 2.4375H2.57143V9.95312C2.57143 10.7372 3.24431 11.375 4.07143 11.375H8.57143ZM8.57143 2.64062V0H4.07143C3.71638 0 3.42857 0.272822 3.42857 0.609375V9.95312C3.42857 10.2897 3.71638 10.5625 4.07143 10.5625H11.3571C11.7122 10.5625 12 10.2897 12 9.95312V3.25H9.21429C8.86071 3.25 8.57143 2.97578 8.57143 2.64062ZM11.8117 1.85278L10.0454 0.178471C9.92486 0.0641983 9.76136 8.4499e-07 9.59087 0L9.42857 0V2.4375H12V2.28366C12 2.12205 11.9323 1.96706 11.8117 1.85278Z" fill="#333333"/>
</svg>
