<svg width="291" height="25" viewBox="0 0 291 25" fill="none" xmlns="http://www.w3.org/2000/svg">
<path d="M290.859 13.0544L287.775 17.7835C287.73 17.8522 287.677 17.9066 287.619 17.9437C287.56 17.9809 287.498 18 287.434 18C287.371 18 287.308 17.9809 287.25 17.9437C287.191 17.9066 287.138 17.8522 287.094 17.7835C287.049 17.7149 287.013 17.6334 286.989 17.5438C286.965 17.4541 286.952 17.358 286.952 17.261C286.952 17.1639 286.965 17.0678 286.989 16.9782C287.013 16.8885 287.049 16.807 287.094 16.7384L289.355 13.2707H271.482C271.354 13.2707 271.231 13.1929 271.141 13.0543C271.051 12.9157 271 12.7278 271 12.5318C271 12.3358 271.051 12.1479 271.141 12.0093C271.231 11.8707 271.354 11.7929 271.482 11.7929H289.355L287.094 8.32522C287.048 8.25704 287.011 8.17548 286.986 8.08532C286.96 7.99516 286.947 7.89819 286.947 7.80007C286.946 7.70196 286.958 7.60466 286.982 7.51386C287.007 7.42306 287.042 7.34057 287.088 7.27121C287.133 7.20185 287.187 7.14701 287.246 7.10988C287.305 7.07275 287.369 7.05408 287.433 7.05496C287.497 7.05584 287.56 7.07625 287.619 7.115C287.677 7.15376 287.731 7.21007 287.775 7.28067L290.859 12.0098C290.904 12.0784 290.939 12.1598 290.963 12.2494C290.988 12.339 291 12.4351 291 12.5321C291 12.6291 290.988 12.7252 290.963 12.8148C290.939 12.9044 290.904 12.9858 290.859 13.0544Z" fill="#4E72DB"/>
<path d="M0.141087 11.9456L3.22495 7.21646C3.2697 7.14783 3.32282 7.0934 3.38129 7.05626C3.43976 7.01912 3.50243 7 3.56571 7C3.629 7 3.69167 7.01912 3.75014 7.05626C3.80861 7.0934 3.86173 7.14783 3.90648 7.21646C3.95123 7.28508 3.98673 7.36655 4.01095 7.45622C4.03517 7.54588 4.04763 7.64198 4.04763 7.73903C4.04763 7.83608 4.03517 7.93218 4.01095 8.02185C3.98673 8.11151 3.95123 8.19298 3.90648 8.2616L1.64524 11.7293L19.5181 11.7293C19.6459 11.7293 19.7685 11.8071 19.8589 11.9457C19.9492 12.0843 20 12.2722 20 12.4682C20 12.6642 19.9492 12.8521 19.8589 12.9907C19.7685 13.1293 19.6459 13.2071 19.5181 13.2071L1.64524 13.2071L3.90648 16.6748C3.95249 16.743 3.98919 16.8245 4.01442 16.9147C4.03966 17.0048 4.05293 17.1018 4.05347 17.1999C4.05401 17.298 4.0418 17.3953 4.01755 17.4861C3.99331 17.5769 3.95751 17.6594 3.91226 17.7288C3.867 17.7981 3.81319 17.853 3.75397 17.8901C3.69474 17.9273 3.63129 17.9459 3.56731 17.945C3.50333 17.9442 3.44011 17.9237 3.38133 17.885C3.32254 17.8462 3.26939 17.7899 3.22495 17.7193L0.141087 12.9902C0.0963424 12.9216 0.0608467 12.8402 0.0366271 12.7506C0.0124095 12.661 -5.69091e-05 12.5649 -5.69145e-05 12.4679C-5.69199e-05 12.3709 0.0124095 12.2748 0.0366271 12.1852C0.0608466 12.0956 0.0963424 12.0142 0.141087 11.9456Z" fill="#4E72DB"/>
<path d="M83.242 17.168C82.1873 17.168 81.31 16.818 80.61 16.118C79.91 15.4087 79.56 14.536 79.56 13.5C79.56 12.464 79.91 11.596 80.61 10.896C81.31 10.1867 82.1873 9.832 83.242 9.832C83.9327 9.832 84.5533 10 85.104 10.336C85.6547 10.6627 86.056 11.106 86.308 11.666L85.552 12.1C85.3653 11.68 85.062 11.3487 84.642 11.106C84.2313 10.854 83.7647 10.728 83.242 10.728C82.4673 10.728 81.814 10.9987 81.282 11.54C80.75 12.072 80.484 12.7253 80.484 13.5C80.484 14.2747 80.75 14.9327 81.282 15.474C81.814 16.006 82.4673 16.272 83.242 16.272C83.7647 16.272 84.2313 16.1507 84.642 15.908C85.0527 15.656 85.3747 15.32 85.608 14.9L86.378 15.348C86.0887 15.908 85.664 16.3513 85.104 16.678C84.544 17.0047 83.9233 17.168 83.242 17.168ZM93.3606 17H92.1286L88.6286 13.626V17H87.7046V10H88.6286V13.094L91.9606 10H93.2206L89.6086 13.36L93.3606 17ZM98.3746 9.832C99.3732 9.832 100.223 10.1867 100.923 10.896C101.632 11.6053 101.987 12.4733 101.987 13.5C101.987 14.5267 101.632 15.3947 100.923 16.104C100.223 16.8133 99.3732 17.168 98.3746 17.168C97.1332 17.168 96.1906 16.6547 95.5466 15.628V19.8H94.6226V10H95.5466V11.372C96.1906 10.3453 97.1332 9.832 98.3746 9.832ZM96.3446 15.474C96.8766 16.006 97.5299 16.272 98.3046 16.272C99.0792 16.272 99.7326 16.006 100.265 15.474C100.797 14.9327 101.063 14.2747 101.063 13.5C101.063 12.7253 100.797 12.072 100.265 11.54C99.7326 10.9987 99.0792 10.728 98.3046 10.728C97.5299 10.728 96.8766 10.9987 96.3446 11.54C95.8126 12.072 95.5466 12.7253 95.5466 13.5C95.5466 14.2747 95.8126 14.9327 96.3446 15.474ZM109.389 16.118C108.68 16.818 107.812 17.168 106.785 17.168C105.758 17.168 104.886 16.818 104.167 16.118C103.458 15.4087 103.103 14.536 103.103 13.5C103.103 12.464 103.458 11.596 104.167 10.896C104.886 10.1867 105.758 9.832 106.785 9.832C107.812 9.832 108.68 10.1867 109.389 10.896C110.108 11.596 110.467 12.464 110.467 13.5C110.467 14.536 110.108 15.4087 109.389 16.118ZM104.825 15.474C105.357 16.006 106.01 16.272 106.785 16.272C107.56 16.272 108.213 16.006 108.745 15.474C109.277 14.9327 109.543 14.2747 109.543 13.5C109.543 12.7253 109.277 12.072 108.745 11.54C108.213 10.9987 107.56 10.728 106.785 10.728C106.01 10.728 105.357 10.9987 104.825 11.54C104.293 12.072 104.027 12.7253 104.027 13.5C104.027 14.2747 104.293 14.9327 104.825 15.474ZM117.48 10V17H116.556V10.896H113.392V14.018C113.392 15.1847 113.168 15.9873 112.72 16.426C112.281 16.8647 111.674 17.056 110.9 17V16.132C111.432 16.188 111.824 16.062 112.076 15.754C112.337 15.446 112.468 14.8673 112.468 14.018V10H117.48ZM122.279 12.66C122.932 12.66 123.483 12.8653 123.931 13.276C124.388 13.6773 124.617 14.1953 124.617 14.83C124.617 15.4647 124.388 15.9873 123.931 16.398C123.483 16.7993 122.932 17 122.279 17H119.437V10H120.361V12.66H122.279ZM122.279 16.104C122.671 16.104 123.002 15.9873 123.273 15.754C123.553 15.5207 123.693 15.2127 123.693 14.83C123.693 14.4473 123.553 14.1393 123.273 13.906C123.002 13.6727 122.671 13.556 122.279 13.556H120.361V16.104H122.279ZM130.219 10V10.896H127.741V17H126.817V10.896H124.339V10H130.219ZM134.306 9.832C135.342 9.832 136.177 10.2007 136.812 10.938C137.456 11.666 137.778 12.5293 137.778 13.528C137.778 13.6307 137.768 13.7753 137.75 13.962H131.604C131.697 14.6713 131.996 15.236 132.5 15.656C133.013 16.0667 133.643 16.272 134.39 16.272C134.922 16.272 135.379 16.1647 135.762 15.95C136.154 15.726 136.448 15.4367 136.644 15.082L137.456 15.558C137.148 16.0527 136.728 16.4447 136.196 16.734C135.664 17.0233 135.057 17.168 134.376 17.168C133.274 17.168 132.378 16.8227 131.688 16.132C130.997 15.4413 130.652 14.564 130.652 13.5C130.652 12.4547 130.992 11.582 131.674 10.882C132.355 10.182 133.232 9.832 134.306 9.832ZM134.306 10.728C133.578 10.728 132.966 10.9473 132.472 11.386C131.986 11.8153 131.697 12.3753 131.604 13.066H136.826C136.732 12.3287 136.448 11.7547 135.972 11.344C135.496 10.9333 134.94 10.728 134.306 10.728ZM147.2 13.402C147.965 13.682 148.348 14.228 148.348 15.04C148.348 15.6093 148.156 16.0807 147.774 16.454C147.4 16.818 146.859 17 146.15 17H142.748V10H145.87C146.551 10 147.078 10.1773 147.452 10.532C147.825 10.8773 148.012 11.3253 148.012 11.876C148.012 12.576 147.741 13.0847 147.2 13.402ZM145.87 10.896H143.672V13.024H145.87C146.682 13.024 147.088 12.66 147.088 11.932C147.088 11.6053 146.98 11.3533 146.766 11.176C146.56 10.9893 146.262 10.896 145.87 10.896ZM146.15 16.104C146.56 16.104 146.873 16.006 147.088 15.81C147.312 15.614 147.424 15.3387 147.424 14.984C147.424 14.6573 147.312 14.4007 147.088 14.214C146.873 14.018 146.56 13.92 146.15 13.92H143.672V16.104H146.15ZM155.628 10V17H154.704V10.896H150.672V17H149.748V10H155.628ZM161.334 9.832C162.332 9.832 163.182 10.1867 163.882 10.896C164.591 11.6053 164.946 12.4733 164.946 13.5C164.946 14.5267 164.591 15.3947 163.882 16.104C163.182 16.8133 162.332 17.168 161.334 17.168C160.092 17.168 159.15 16.6547 158.506 15.628V19.8H157.582V10H158.506V11.372C159.15 10.3453 160.092 9.832 161.334 9.832ZM159.304 15.474C159.836 16.006 160.489 16.272 161.264 16.272C162.038 16.272 162.692 16.006 163.224 15.474C163.756 14.9327 164.022 14.2747 164.022 13.5C164.022 12.7253 163.756 12.072 163.224 11.54C162.692 10.9987 162.038 10.728 161.264 10.728C160.489 10.728 159.836 10.9987 159.304 11.54C158.772 12.072 158.506 12.7253 158.506 13.5C158.506 14.2747 158.772 14.9327 159.304 15.474ZM172.502 10H173.426V17H172.502V15.628C171.858 16.6547 170.915 17.168 169.674 17.168C168.675 17.168 167.821 16.8133 167.112 16.104C166.412 15.3947 166.062 14.5267 166.062 13.5C166.062 12.4733 166.412 11.6053 167.112 10.896C167.821 10.1867 168.675 9.832 169.674 9.832C170.915 9.832 171.858 10.3453 172.502 11.372V10ZM167.784 15.474C168.316 16.006 168.969 16.272 169.744 16.272C170.519 16.272 171.172 16.006 171.704 15.474C172.236 14.9327 172.502 14.2747 172.502 13.5C172.502 12.7253 172.236 12.072 171.704 11.54C171.172 10.9987 170.519 10.728 169.744 10.728C168.969 10.728 168.316 10.9987 167.784 11.54C167.252 12.072 166.986 12.7253 166.986 13.5C166.986 14.2747 167.252 14.9327 167.784 15.474ZM179.834 13.402C180.6 13.682 180.982 14.228 180.982 15.04C180.982 15.6093 180.791 16.0807 180.408 16.454C180.035 16.818 179.494 17 178.784 17H175.382V10H178.504C179.186 10 179.713 10.1773 180.086 10.532C180.46 10.8773 180.646 11.3253 180.646 11.876C180.646 12.576 180.376 13.0847 179.834 13.402ZM178.504 10.896H176.306V13.024H178.504C179.316 13.024 179.722 12.66 179.722 11.932C179.722 11.6053 179.615 11.3533 179.4 11.176C179.195 10.9893 178.896 10.896 178.504 10.896ZM178.784 16.104C179.195 16.104 179.508 16.006 179.722 15.81C179.946 15.614 180.058 15.3387 180.058 14.984C180.058 14.6573 179.946 14.4007 179.722 14.214C179.508 14.018 179.195 13.92 178.784 13.92H176.306V16.104H178.784ZM188.248 16.118C187.539 16.818 186.671 17.168 185.644 17.168C184.618 17.168 183.745 16.818 183.026 16.118C182.317 15.4087 181.962 14.536 181.962 13.5C181.962 12.464 182.317 11.596 183.026 10.896C183.745 10.1867 184.618 9.832 185.644 9.832C186.671 9.832 187.539 10.1867 188.248 10.896C188.967 11.596 189.326 12.464 189.326 13.5C189.326 14.536 188.967 15.4087 188.248 16.118ZM183.684 15.474C184.216 16.006 184.87 16.272 185.644 16.272C186.419 16.272 187.072 16.006 187.604 15.474C188.136 14.9327 188.402 14.2747 188.402 13.5C188.402 12.7253 188.136 12.072 187.604 11.54C187.072 10.9987 186.419 10.728 185.644 10.728C184.87 10.728 184.216 10.9987 183.684 11.54C183.152 12.072 182.886 12.7253 182.886 13.5C182.886 14.2747 183.152 14.9327 183.684 15.474ZM199.469 10H200.253V17H199.329V11.61L195.157 17H194.373V10H195.297V15.39L199.469 10ZM210.159 13.402C210.924 13.682 211.307 14.228 211.307 15.04C211.307 15.6093 211.115 16.0807 210.733 16.454C210.359 16.818 209.818 17 209.109 17H205.707V10H208.829C209.51 10 210.037 10.1773 210.411 10.532C210.784 10.8773 210.971 11.3253 210.971 11.876C210.971 12.576 210.7 13.0847 210.159 13.402ZM208.829 10.896H206.631V13.024H208.829C209.641 13.024 210.047 12.66 210.047 11.932C210.047 11.6053 209.939 11.3533 209.725 11.176C209.519 10.9893 209.221 10.896 208.829 10.896ZM209.109 16.104C209.519 16.104 209.832 16.006 210.047 15.81C210.271 15.614 210.383 15.3387 210.383 14.984C210.383 14.6573 210.271 14.4007 210.047 14.214C209.832 14.018 209.519 13.92 209.109 13.92H206.631V16.104H209.109ZM218.173 10V17H217.249V10.896H214.085V14.018C214.085 15.1847 213.861 15.9873 213.413 16.426C212.974 16.8647 212.368 17.056 211.593 17V16.132C212.125 16.188 212.517 16.062 212.769 15.754C213.03 15.446 213.161 14.8673 213.161 14.018V10H218.173ZM223.364 9.832C224.4 9.832 225.236 10.2007 225.87 10.938C226.514 11.666 226.836 12.5293 226.836 13.528C226.836 13.6307 226.827 13.7753 226.808 13.962H220.662C220.756 14.6713 221.054 15.236 221.558 15.656C222.072 16.0667 222.702 16.272 223.448 16.272C223.98 16.272 224.438 16.1647 224.82 15.95C225.212 15.726 225.506 15.4367 225.702 15.082L226.514 15.558C226.206 16.0527 225.786 16.4447 225.254 16.734C224.722 17.0233 224.116 17.168 223.434 17.168C222.333 17.168 221.437 16.8227 220.746 16.132C220.056 15.4413 219.71 14.564 219.71 13.5C219.71 12.4547 220.051 11.582 220.732 10.882C221.414 10.182 222.291 9.832 223.364 9.832ZM223.364 10.728C222.636 10.728 222.025 10.9473 221.53 11.386C221.045 11.8153 220.756 12.3753 220.662 13.066H225.884C225.791 12.3287 225.506 11.7547 225.03 11.344C224.554 10.9333 223.999 10.728 223.364 10.728ZM232.758 13.402C233.524 13.682 233.906 14.228 233.906 15.04C233.906 15.6093 233.715 16.0807 233.332 16.454C232.959 16.818 232.418 17 231.708 17H228.306V10H231.428C232.11 10 232.637 10.1773 233.01 10.532C233.384 10.8773 233.57 11.3253 233.57 11.876C233.57 12.576 233.3 13.0847 232.758 13.402ZM231.428 10.896H229.23V13.024H231.428C232.24 13.024 232.646 12.66 232.646 11.932C232.646 11.6053 232.539 11.3533 232.324 11.176C232.119 10.9893 231.82 10.896 231.428 10.896ZM231.708 16.104C232.119 16.104 232.432 16.006 232.646 15.81C232.87 15.614 232.982 15.3387 232.982 14.984C232.982 14.6573 232.87 14.4007 232.646 14.214C232.432 14.018 232.119 13.92 231.708 13.92H229.23V16.104H231.708ZM241.172 16.118C240.463 16.818 239.595 17.168 238.568 17.168C237.542 17.168 236.669 16.818 235.95 16.118C235.241 15.4087 234.886 14.536 234.886 13.5C234.886 12.464 235.241 11.596 235.95 10.896C236.669 10.1867 237.542 9.832 238.568 9.832C239.595 9.832 240.463 10.1867 241.172 10.896C241.891 11.596 242.25 12.464 242.25 13.5C242.25 14.536 241.891 15.4087 241.172 16.118ZM236.608 15.474C237.14 16.006 237.794 16.272 238.568 16.272C239.343 16.272 239.996 16.006 240.528 15.474C241.06 14.9327 241.326 14.2747 241.326 13.5C241.326 12.7253 241.06 12.072 240.528 11.54C239.996 10.9987 239.343 10.728 238.568 10.728C237.794 10.728 237.14 10.9987 236.608 11.54C236.076 12.072 235.81 12.7253 235.81 13.5C235.81 14.2747 236.076 14.9327 236.608 15.474Z" fill="#4E72DB"/>
<path d="M54.2936 3.57112V11.0712C52.5635 9.4643 50.6606 8.21405 49.4493 9.4643C47.7191 11.25 51.3526 14.7323 54.1213 19.9999C56.1115 23.661 58.8793 25 61.6475 25C62.6133 25.0007 63.5697 24.8049 64.4621 24.4238C65.3545 24.0427 66.1654 23.4836 66.8483 22.7788C67.5311 22.0739 68.0727 21.237 68.4419 20.3158C68.8111 19.3947 69.0008 18.4075 69 17.4107V12.0535C68.9999 11.639 68.888 11.2327 68.6768 10.8802C68.4656 10.5276 68.1635 10.2427 67.8043 10.0574C67.4451 9.87201 67.043 9.79351 66.6431 9.83067C66.2431 9.86783 65.8611 10.0192 65.5397 10.2678C65.5396 9.85328 65.4277 9.44701 65.2165 9.09446C65.0053 8.74191 64.7032 8.457 64.344 8.27163C63.9849 8.08627 63.5828 8.00777 63.1828 8.04493C62.7828 8.08209 62.4008 8.23343 62.0795 8.48202V2.23217C62.0823 1.93823 62.0283 1.64667 61.9206 1.37454C61.813 1.10241 61.6538 0.855181 61.4524 0.647328C61.251 0.439475 61.0115 0.275174 60.7478 0.164041C60.4842 0.0529081 60.2017 -0.00282297 59.9169 0.000110031C58.967 0.000110031 58.1868 0.624769 57.9267 1.4287C57.5807 1.07155 57.0614 0.892747 56.4562 0.892747C55.4181 0.892747 54.5528 1.69621 54.38 2.67849C54.3411 2.83012 54.3173 2.98545 54.309 3.14208C54.3022 3.2672 54.2936 3.57112 54.2936 3.57112ZM68.1347 14.0181V17.4107C68.1347 21.0714 65.1946 24.1074 61.6466 24.1074C58.3596 24.1074 56.4562 22.2325 54.8993 19.6432C51.5254 13.7501 49.1032 11.0717 50.0549 10.0894C51.0066 9.10715 53.3419 11.25 55.1589 13.2146V3.1248C55.1589 2.41051 55.7641 1.78538 56.4562 1.78538C57.1482 1.78538 57.7539 2.41051 57.7539 3.1248V12.4998H58.6192V2.23217C58.6192 1.51787 59.2249 0.892747 59.9169 0.892747C60.609 0.892747 61.2142 1.51787 61.2142 2.23217V11.6072H62.0795V10.2678C62.0795 9.55347 62.6851 8.92834 63.3772 8.92834C64.0692 8.92834 64.6744 9.55347 64.6744 10.2678V12.4998H65.5397V12.0535C65.5397 11.3392 66.1454 10.7141 66.8374 10.7141C67.5295 10.7141 68.1347 11.3392 68.1347 12.0535V14.0181Z" fill="#4E72DB"/>
</svg>
