<svg width="50" height="50" viewBox="0 0 50 50" fill="none" xmlns="http://www.w3.org/2000/svg">
<g clip-path="url(#clip0)">
<path d="M42.3747 12.0702V12.1479L42.4382 12.1927L49.675 17.3045C49.7781 17.3883 49.8217 17.4912 49.8395 17.6215C49.8532 17.7217 49.8507 17.8231 49.8479 17.9392C49.8467 17.9909 49.8454 18.0455 49.8454 18.1041V45.4003C49.8454 45.7321 49.7895 46.0656 49.6672 46.3101C49.5474 46.5497 49.3754 46.6869 49.1333 46.6869H1.44659C0.772527 46.5947 0.242355 46.0644 0.15 45.3903V18.1104C0.178042 17.7897 0.343461 17.4967 0.603773 17.3071L8.13018 12.1363L8.19524 12.0916V12.0127V4.60711C8.26367 3.94275 8.77457 3.40976 9.43511 3.31296H41.1349C41.7955 3.40965 42.3063 3.94271 42.3747 4.6071V12.0702ZM42.6096 14.7048L42.3747 14.5437V14.8285V21.9542V22.2556L42.6152 22.0739L47.5573 18.3386L47.7234 18.2131L47.5517 18.0953L42.6096 14.7048ZM40.3761 5.4616V5.3116H40.2261H10.3439H10.3438H10.1938V5.4616V23.7358V23.8106L10.2535 23.8556L25.1946 35.1189L25.2849 35.1869L25.3752 35.1189L40.3164 23.8556L40.3761 23.8106V23.7358V5.4616ZM8.19524 14.7711V14.4836L7.95941 14.6481L3.0173 18.0961L2.84924 18.2133L3.01181 18.3381L7.95391 22.1309L8.19524 22.3161V22.0119V14.7711ZM2.38919 20.4555L2.14864 20.2734V20.5751V43.6189V43.9012L2.38256 43.7433L18.473 32.8822L18.6469 32.7649L18.4797 32.6383L2.38919 20.4555ZM4.97331 44.4139L4.56547 44.6884H5.05705H45.5129H46.0023L45.597 44.4141L30.1386 33.9553L30.0489 33.8946L29.963 33.9607L25.7121 37.2352C25.7118 37.2354 25.7116 37.2356 25.7113 37.2358C25.6797 37.2595 25.6509 37.2814 25.6245 37.3015C25.4448 37.4383 25.3743 37.492 25.2295 37.4925C24.9702 37.4847 24.72 37.3951 24.5147 37.2365L24.5138 37.2358L20.4337 34.1326L20.3483 34.0676L20.2592 34.1276L4.97331 44.4139ZM47.6131 43.3412L47.8467 43.4981V43.2167V20.5751V20.2712L47.6055 20.4561L31.8598 32.5239L31.694 32.651L31.8674 32.7675L47.6131 43.3412Z" fill="black" stroke="white" stroke-width="0.3"/>
<path d="M21.2607 12.7822H16.0888C15.5368 12.7822 15.0895 12.3348 15.0895 11.7829C15.0895 11.2309 15.5368 10.7835 16.0888 10.7835H21.2607C21.8126 10.7835 22.26 11.2309 22.26 11.7829C22.26 12.3348 21.8126 12.7822 21.2607 12.7822Z" fill="black" stroke="white" stroke-width="0.3"/>
<path d="M34.4779 17.9542H16.0888C15.5368 17.9542 15.0895 17.5068 15.0895 16.9549C15.0895 16.4029 15.5368 15.9555 16.0888 15.9555H34.4779C35.0298 15.9555 35.4772 16.4029 35.4772 16.9549C35.4772 17.5068 35.0298 17.9542 34.4779 17.9542Z" fill="black" stroke="white" stroke-width="0.3"/>
<path d="M34.4778 21.1274C35.0297 21.1274 35.4771 21.5748 35.4771 22.1267C35.4771 22.6787 35.0297 23.1261 34.4779 23.1261H16.0888C15.5368 23.1261 15.0895 22.6787 15.0895 22.1267C15.0895 21.5748 15.5368 21.1274 16.0888 21.1274H34.4778Z" fill="black" stroke="white" stroke-width="0.3"/>
</g>
<defs>
<clipPath id="clip0">
<rect width="50" height="50" fill="white"/>
</clipPath>
</defs>
</svg>
