<svg width="12" height="12" viewBox="0 0 12 12" fill="none" xmlns="http://www.w3.org/2000/svg">
<path d="M10.3631 3.39844C10.6112 3.39844 10.7832 3.14763 10.6902 2.91764C10.3598 2.10105 9.55871 1.52344 8.6251 1.52344H8.19352C8.03257 0.673289 7.28719 0 6.3751 0H5.6251C4.71359 0 3.96771 0.672844 3.80668 1.52344H3.3751C2.44149 1.52344 1.64035 2.10105 1.31004 2.91764C1.21702 3.14763 1.38903 3.39844 1.63711 3.39844H10.3631ZM5.6251 0.703125H6.3751C6.88838 0.703125 7.32408 1.04845 7.47075 1.52344H4.52944C4.67611 1.04845 5.11182 0.703125 5.6251 0.703125Z" fill="var(--garbage-color, #E30000)"/>
<path d="M2.60281 11.0202C2.64193 11.5696 3.10404 12 3.65483 12H8.34516C8.89594 12 9.35806 11.5696 9.39718 11.0202L9.8899 4.10156H2.11011L2.60281 11.0202ZM6.96139 5.98245C6.97109 5.78852 7.13644 5.63897 7.33006 5.64888C7.52398 5.65859 7.67333 5.82366 7.66362 6.01755L7.47612 9.76755C7.46672 9.9555 7.31138 10.1016 7.12529 10.1016C6.92286 10.1016 6.76388 9.93227 6.77387 9.73245L6.96139 5.98245ZM4.66995 5.64888C4.86362 5.63916 5.02894 5.78855 5.03862 5.98245L5.22612 9.73245C5.23611 9.93237 5.07701 10.1016 4.8747 10.1016C4.68861 10.1016 4.53326 9.9555 4.52387 9.76755L4.33637 6.01755C4.32669 5.82366 4.47603 5.65859 4.66995 5.64888Z" fill="var(--garbage-color, #E30000)"/>
</svg>
