<svg width="50" height="46" viewBox="0 0 50 46" fill="none" xmlns="http://www.w3.org/2000/svg">
<path d="M8.33333 19.2209H19.1667C19.6275 19.2209 20 18.8475 20 18.3875C20 17.9275 19.6275 17.5542 19.1667 17.5542H8.33333C7.8725 17.5542 7.5 17.9275 7.5 18.3875C7.5 18.8475 7.8725 19.2209 8.33333 19.2209Z" fill="black"/>
<path d="M30 22.5542H8.33333C7.8725 22.5542 7.5 22.9275 7.5 23.3875C7.5 23.8475 7.8725 24.2209 8.33333 24.2209H30C30.4608 24.2209 30.8333 23.8475 30.8333 23.3875C30.8333 22.9275 30.4608 22.5542 30 22.5542Z" fill="black"/>
<path d="M30 27.5542H8.33333C7.8725 27.5542 7.5 27.9275 7.5 28.3875C7.5 28.8475 7.8725 29.2209 8.33333 29.2209H30C30.4608 29.2209 30.8333 28.8475 30.8333 28.3875C30.8333 27.9275 30.4608 27.5542 30 27.5542Z" fill="black"/>
<path d="M45.06 0.112533L16.6083 0.0541992C13.8833 0.0541992 11.6667 2.27087 11.6667 4.99587V9.26587L4.94167 9.28003C2.21667 9.28003 0 11.4967 0 14.2217V31.8392C0 34.5642 2.21667 36.78 4.94167 36.78H10V45.1134C10 45.4575 10.2117 45.7667 10.5333 45.8909C10.6308 45.9284 10.7325 45.9467 10.8333 45.9467C11.0633 45.9467 11.2892 45.8509 11.45 45.6742L19.5367 36.7784L33.3917 36.7217C36.1167 36.7217 38.3333 34.505 38.3333 31.7809V31.6867L42.7167 36.5084C42.8775 36.685 43.1033 36.7809 43.3333 36.7809C43.4342 36.7809 43.5358 36.7625 43.6333 36.725C43.955 36.6009 44.1667 36.2917 44.1667 35.9475V27.6142H45.0583C47.7833 27.6142 50 25.3975 50 22.6734V5.0542C50 2.33003 47.7842 0.113366 45.06 0.112533ZM36.6667 31.78C36.6667 33.5859 35.1975 35.0542 33.3883 35.0542L19.1633 35.1125C18.93 35.1134 18.7067 35.2125 18.55 35.385L11.6667 42.9575V35.9459C11.6667 35.4859 11.2942 35.1125 10.8333 35.1125H4.94167C3.13583 35.1125 1.66667 33.6434 1.66667 31.8384V14.2209C1.66667 12.415 3.13583 10.9459 4.94333 10.9459L12.5 10.93C12.5008 10.93 12.5008 10.93 12.5017 10.93L33.3917 10.8867C35.1975 10.8867 36.6667 12.3559 36.6667 14.1617V29.5292V31.78ZM48.3333 22.6717C48.3333 24.4775 46.8642 25.9459 45.0583 25.9459H43.3333C42.8725 25.9459 42.5 26.3192 42.5 26.7792V33.7909L38.3333 29.2075V14.1625C38.3333 11.4375 36.1167 9.22087 33.39 9.22087L13.3333 9.2617V4.99503C13.3333 3.1892 14.8025 1.72003 16.6067 1.72003L45.0575 1.77837C45.0583 1.77837 45.0583 1.77837 45.0592 1.77837C46.865 1.77837 48.3342 3.24753 48.3342 5.05337V22.6717H48.3333Z" fill="black"/>
</svg>
