<svg width="50" height="50" viewBox="0 0 50 50" fill="none" xmlns="http://www.w3.org/2000/svg">
<path d="M44.5312 10.1562H42.9688V1.5625C42.9688 1.3553 42.8864 1.15659 42.7399 1.01007C42.5934 0.86356 42.3947 0.78125 42.1875 0.78125H23.4375C23.2303 0.78125 23.0316 0.86356 22.8851 1.01007C22.7386 1.15659 22.6562 1.3553 22.6562 1.5625V10.1562H17.8906C17.7093 9.27454 17.2295 8.4823 16.5322 7.91306C15.8349 7.34382 14.9627 7.03239 14.0625 7.03125H9.375C8.47484 7.03239 7.60259 7.34382 6.90527 7.91306C6.20795 8.4823 5.7282 9.27454 5.54688 10.1562H5.46875C4.22593 10.1575 3.03437 10.6517 2.15556 11.5306C1.27675 12.4094 0.782491 13.6009 0.78125 14.8438V44.5312C0.782491 45.7741 1.27675 46.9656 2.15556 47.8444C3.03437 48.7233 4.22593 49.2175 5.46875 49.2188H44.5312C45.7741 49.2175 46.9656 48.7233 47.8444 47.8444C48.7233 46.9656 49.2175 45.7741 49.2188 44.5312V14.8438C49.2175 13.6009 48.7233 12.4094 47.8444 11.5306C46.9656 10.6517 45.7741 10.1575 44.5312 10.1562ZM24.2188 2.34375H41.4062V13.2812H32.8125C32.6582 13.2815 32.5074 13.3271 32.3789 13.4125L28.9062 15.7273V14.0625C28.9062 13.8553 28.8239 13.6566 28.6774 13.5101C28.5309 13.3636 28.3322 13.2812 28.125 13.2812H24.2188V2.34375ZM27.3438 14.8438V17.1875C27.3437 17.3289 27.3821 17.4677 27.4548 17.5891C27.5275 17.7104 27.6317 17.8097 27.7564 17.8765C27.8811 17.9432 28.0216 17.9748 28.1629 17.9679C28.3042 17.9611 28.4409 17.916 28.5586 17.8375L33.0469 14.8438H44.5312V21.0938H21.0938V14.8438H27.3438ZM7.03125 10.9375C7.03125 10.3159 7.27818 9.71976 7.71772 9.28022C8.15726 8.84068 8.7534 8.59375 9.375 8.59375H14.0625C14.6841 8.59375 15.2802 8.84068 15.7198 9.28022C16.1593 9.71976 16.4062 10.3159 16.4062 10.9375V40.625C16.4062 41.2466 16.1593 41.8427 15.7198 42.2823C15.2802 42.7218 14.6841 42.9688 14.0625 42.9688H9.375C8.7534 42.9688 8.15726 42.7218 7.71772 42.2823C7.27818 41.8427 7.03125 41.2466 7.03125 40.625V10.9375ZM47.6562 44.5312C47.6562 45.3601 47.327 46.1549 46.741 46.741C46.1549 47.327 45.3601 47.6562 44.5312 47.6562H5.46875C4.63995 47.6562 3.84509 47.327 3.25904 46.741C2.67299 46.1549 2.34375 45.3601 2.34375 44.5312V14.8438C2.34375 14.0149 2.67299 13.2201 3.25904 12.634C3.84509 12.048 4.63995 11.7188 5.46875 11.7188V40.625C5.46999 41.6606 5.88194 42.6535 6.61423 43.3858C7.34653 44.1181 8.33938 44.53 9.375 44.5312H14.0625C15.0981 44.53 16.091 44.1181 16.8233 43.3858C17.5556 42.6535 17.9675 41.6606 17.9688 40.625V11.7188H22.6562V13.2812H20.3125C20.1053 13.2812 19.9066 13.3636 19.7601 13.5101C19.6136 13.6566 19.5312 13.8553 19.5312 14.0625V21.875C19.5312 22.0822 19.6136 22.2809 19.7601 22.4274C19.9066 22.5739 20.1053 22.6562 20.3125 22.6562H45.3125C45.5197 22.6562 45.7184 22.5739 45.8649 22.4274C46.0114 22.2809 46.0938 22.0822 46.0938 21.875V14.0625C46.0938 13.8553 46.0114 13.6566 45.8649 13.5101C45.7184 13.3636 45.5197 13.2812 45.3125 13.2812H42.9688V11.7188H44.5312C45.3601 11.7188 46.1549 12.048 46.741 12.634C47.327 13.2201 47.6562 14.0149 47.6562 14.8438V44.5312Z" fill="black"/>
<path d="M25 24.2188H21.875C21.2534 24.2188 20.6573 24.4657 20.2177 24.9052C19.7782 25.3448 19.5313 25.9409 19.5312 26.5625V28.125C19.5312 28.7466 19.7782 29.3427 20.2177 29.7823C20.6573 30.2218 21.2534 30.4688 21.875 30.4688H25C25.6216 30.4688 26.2177 30.2218 26.6573 29.7823C27.0968 29.3427 27.3438 28.7466 27.3438 28.125V26.5625C27.3438 25.9409 27.0968 25.3448 26.6573 24.9052C26.2177 24.4657 25.6216 24.2188 25 24.2188ZM25.7812 28.125C25.7812 28.3322 25.6989 28.5309 25.5524 28.6774C25.4059 28.8239 25.2072 28.9062 25 28.9062H21.875C21.6678 28.9062 21.4691 28.8239 21.3226 28.6774C21.1761 28.5309 21.0938 28.3322 21.0938 28.125V26.5625C21.0938 26.3553 21.1761 26.1566 21.3226 26.0101C21.4691 25.8636 21.6678 25.7812 21.875 25.7812H25C25.2072 25.7812 25.4059 25.8636 25.5524 26.0101C25.6989 26.1566 25.7812 26.3553 25.7812 26.5625V28.125Z" fill="black"/>
<path d="M31.25 30.4688H34.375C34.9966 30.4688 35.5927 30.2218 36.0323 29.7823C36.4718 29.3427 36.7188 28.7466 36.7188 28.125V26.5625C36.7188 25.9409 36.4718 25.3448 36.0323 24.9052C35.5927 24.4657 34.9966 24.2188 34.375 24.2188H31.25C30.6284 24.2188 30.0323 24.4657 29.5927 24.9052C29.1532 25.3448 28.9062 25.9409 28.9062 26.5625V28.125C28.9062 28.7466 29.1532 29.3427 29.5927 29.7823C30.0323 30.2218 30.6284 30.4688 31.25 30.4688ZM30.4688 26.5625C30.4688 26.3553 30.5511 26.1566 30.6976 26.0101C30.8441 25.8636 31.0428 25.7812 31.25 25.7812H34.375C34.5822 25.7812 34.7809 25.8636 34.9274 26.0101C35.0739 26.1566 35.1562 26.3553 35.1562 26.5625V28.125C35.1562 28.3322 35.0739 28.5309 34.9274 28.6774C34.7809 28.8239 34.5822 28.9062 34.375 28.9062H31.25C31.0428 28.9062 30.8441 28.8239 30.6976 28.6774C30.5511 28.5309 30.4688 28.3322 30.4688 28.125V26.5625Z" fill="black"/>
<path d="M25 32.0312H21.875C21.2534 32.0312 20.6573 32.2782 20.2177 32.7177C19.7782 33.1573 19.5313 33.7534 19.5312 34.375V35.9375C19.5312 36.5591 19.7782 37.1552 20.2177 37.5948C20.6573 38.0343 21.2534 38.2812 21.875 38.2812H25C25.6216 38.2812 26.2177 38.0343 26.6573 37.5948C27.0968 37.1552 27.3438 36.5591 27.3438 35.9375V34.375C27.3438 33.7534 27.0968 33.1573 26.6573 32.7177C26.2177 32.2782 25.6216 32.0312 25 32.0312ZM25.7812 35.9375C25.7812 36.1447 25.6989 36.3434 25.5524 36.4899C25.4059 36.6364 25.2072 36.7188 25 36.7188H21.875C21.6678 36.7188 21.4691 36.6364 21.3226 36.4899C21.1761 36.3434 21.0938 36.1447 21.0938 35.9375V34.375C21.0938 34.1678 21.1761 33.9691 21.3226 33.8226C21.4691 33.6761 21.6678 33.5938 21.875 33.5938H25C25.2072 33.5938 25.4059 33.6761 25.5524 33.8226C25.6989 33.9691 25.7812 34.1678 25.7812 34.375V35.9375Z" fill="black"/>
<path d="M25 39.8438H21.875C21.2534 39.8438 20.6573 40.0907 20.2177 40.5302C19.7782 40.9698 19.5313 41.5659 19.5312 42.1875V43.75C19.5312 44.3716 19.7782 44.9677 20.2177 45.4073C20.6573 45.8468 21.2534 46.0938 21.875 46.0938H25C25.6216 46.0938 26.2177 45.8468 26.6573 45.4073C27.0968 44.9677 27.3438 44.3716 27.3438 43.75V42.1875C27.3438 41.5659 27.0968 40.9698 26.6573 40.5302C26.2177 40.0907 25.6216 39.8438 25 39.8438ZM25.7812 43.75C25.7812 43.9572 25.6989 44.1559 25.5524 44.3024C25.4059 44.4489 25.2072 44.5312 25 44.5312H21.875C21.6678 44.5312 21.4691 44.4489 21.3226 44.3024C21.1761 44.1559 21.0938 43.9572 21.0938 43.75V42.1875C21.0938 41.9803 21.1761 41.7816 21.3226 41.6351C21.4691 41.4886 21.6678 41.4062 21.875 41.4062H25C25.2072 41.4062 25.4059 41.4886 25.5524 41.6351C25.6989 41.7816 25.7812 41.9803 25.7812 42.1875V43.75Z" fill="black"/>
<path d="M43.75 39.8438H31.25C30.6284 39.8438 30.0323 40.0907 29.5927 40.5302C29.1532 40.9698 28.9062 41.5659 28.9062 42.1875V43.75C28.9062 44.3716 29.1532 44.9677 29.5927 45.4073C30.0323 45.8468 30.6284 46.0938 31.25 46.0938H43.75C44.3716 46.0938 44.9677 45.8468 45.4073 45.4073C45.8468 44.9677 46.0938 44.3716 46.0938 43.75V42.1875C46.0938 41.5659 45.8468 40.9698 45.4073 40.5302C44.9677 40.0907 44.3716 39.8438 43.75 39.8438ZM44.5312 43.75C44.5312 43.9572 44.4489 44.1559 44.3024 44.3024C44.1559 44.4489 43.9572 44.5312 43.75 44.5312H31.25C31.0428 44.5312 30.8441 44.4489 30.6976 44.3024C30.5511 44.1559 30.4688 43.9572 30.4688 43.75V42.1875C30.4688 41.9803 30.5511 41.7816 30.6976 41.6351C30.8441 41.4886 31.0428 41.4062 31.25 41.4062H43.75C43.9572 41.4062 44.1559 41.4886 44.3024 41.6351C44.4489 41.7816 44.5312 41.9803 44.5312 42.1875V43.75Z" fill="black"/>
<path d="M31.25 38.2812H34.375C34.9966 38.2812 35.5927 38.0343 36.0323 37.5948C36.4718 37.1552 36.7188 36.5591 36.7188 35.9375V34.375C36.7188 33.7534 36.4718 33.1573 36.0323 32.7177C35.5927 32.2782 34.9966 32.0312 34.375 32.0312H31.25C30.6284 32.0312 30.0323 32.2782 29.5927 32.7177C29.1532 33.1573 28.9062 33.7534 28.9062 34.375V35.9375C28.9062 36.5591 29.1532 37.1552 29.5927 37.5948C30.0323 38.0343 30.6284 38.2812 31.25 38.2812ZM30.4688 34.375C30.4688 34.1678 30.5511 33.9691 30.6976 33.8226C30.8441 33.6761 31.0428 33.5938 31.25 33.5938H34.375C34.5822 33.5938 34.7809 33.6761 34.9274 33.8226C35.0739 33.9691 35.1562 34.1678 35.1562 34.375V35.9375C35.1562 36.1447 35.0739 36.3434 34.9274 36.4899C34.7809 36.6364 34.5822 36.7188 34.375 36.7188H31.25C31.0428 36.7188 30.8441 36.6364 30.6976 36.4899C30.5511 36.3434 30.4688 36.1447 30.4688 35.9375V34.375Z" fill="black"/>
<path d="M43.75 24.2188H40.625C40.0034 24.2188 39.4073 24.4657 38.9677 24.9052C38.5282 25.3448 38.2812 25.9409 38.2812 26.5625V28.125C38.2812 28.7466 38.5282 29.3427 38.9677 29.7823C39.4073 30.2218 40.0034 30.4688 40.625 30.4688H43.75C44.3716 30.4688 44.9677 30.2218 45.4073 29.7823C45.8468 29.3427 46.0938 28.7466 46.0938 28.125V26.5625C46.0938 25.9409 45.8468 25.3448 45.4073 24.9052C44.9677 24.4657 44.3716 24.2188 43.75 24.2188ZM44.5312 28.125C44.5312 28.3322 44.4489 28.5309 44.3024 28.6774C44.1559 28.8239 43.9572 28.9062 43.75 28.9062H40.625C40.4178 28.9062 40.2191 28.8239 40.0726 28.6774C39.9261 28.5309 39.8438 28.3322 39.8438 28.125V26.5625C39.8438 26.3553 39.9261 26.1566 40.0726 26.0101C40.2191 25.8636 40.4178 25.7812 40.625 25.7812H43.75C43.9572 25.7812 44.1559 25.8636 44.3024 26.0101C44.4489 26.1566 44.5312 26.3553 44.5312 26.5625V28.125Z" fill="black"/>
<path d="M43.75 32.0312H40.625C40.0034 32.0312 39.4073 32.2782 38.9677 32.7177C38.5282 33.1573 38.2812 33.7534 38.2812 34.375V35.9375C38.2812 36.5591 38.5282 37.1552 38.9677 37.5948C39.4073 38.0343 40.0034 38.2812 40.625 38.2812H43.75C44.3716 38.2812 44.9677 38.0343 45.4073 37.5948C45.8468 37.1552 46.0938 36.5591 46.0938 35.9375V34.375C46.0938 33.7534 45.8468 33.1573 45.4073 32.7177C44.9677 32.2782 44.3716 32.0312 43.75 32.0312ZM44.5312 35.9375C44.5312 36.1447 44.4489 36.3434 44.3024 36.4899C44.1559 36.6364 43.9572 36.7188 43.75 36.7188H40.625C40.4178 36.7188 40.2191 36.6364 40.0726 36.4899C39.9261 36.3434 39.8438 36.1447 39.8438 35.9375V34.375C39.8438 34.1678 39.9261 33.9691 40.0726 33.8226C40.2191 33.6761 40.4178 33.5938 40.625 33.5938H43.75C43.9572 33.5938 44.1559 33.6761 44.3024 33.8226C44.4489 33.9691 44.5312 34.1678 44.5312 34.375V35.9375Z" fill="black"/>
<path d="M41.4062 18.75C41.4062 18.3185 41.756 17.9688 42.1875 17.9688C42.619 17.9688 42.9688 18.3185 42.9688 18.75C42.9688 19.1815 42.619 19.5312 42.1875 19.5312C41.756 19.5312 41.4062 19.1815 41.4062 18.75Z" fill="black"/>
<path d="M38.2812 18.75C38.2812 18.3185 38.631 17.9688 39.0625 17.9688C39.494 17.9688 39.8438 18.3185 39.8438 18.75C39.8438 19.1815 39.494 19.5312 39.0625 19.5312C38.631 19.5312 38.2812 19.1815 38.2812 18.75Z" fill="black"/>
<path d="M35.1562 18.75C35.1562 18.3185 35.506 17.9688 35.9375 17.9688C36.369 17.9688 36.7188 18.3185 36.7188 18.75C36.7188 19.1815 36.369 19.5312 35.9375 19.5312C35.506 19.5312 35.1562 19.1815 35.1562 18.75Z" fill="black"/>
<path d="M25.7812 3.90625H39.8438V5.46875H25.7812V3.90625Z" fill="black"/>
<path d="M25.7812 7.03125H39.8438V8.59375H25.7812V7.03125Z" fill="black"/>
<path d="M25.7812 10.1562H39.8438V11.7188H25.7812V10.1562Z" fill="black"/>
</svg>
