<svg width="12" height="12" viewBox="0 0 12 12" fill="none" xmlns="http://www.w3.org/2000/svg">
<path d="M10.3628 3.39844C10.6109 3.39844 10.7829 3.14763 10.6899 2.91764C10.3596 2.10105 9.55846 1.52344 8.62485 1.52344H8.19328C8.03233 0.673289 7.28695 0 6.37485 0H5.62485C4.71335 0 3.96747 0.672844 3.80643 1.52344H3.37485C2.44124 1.52344 1.6401 2.10105 1.3098 2.91764C1.21678 3.14763 1.38878 3.39844 1.63687 3.39844H10.3628ZM5.62485 0.703125H6.37485C6.88813 0.703125 7.32384 1.04845 7.47051 1.52344H4.5292C4.67587 1.04845 5.11157 0.703125 5.62485 0.703125Z" fill="#ABABAB"/>
<path d="M2.60305 11.0202C2.64217 11.5696 3.10429 12 3.65507 12H8.34541C8.89619 12 9.3583 11.5696 9.39742 11.0202L9.89015 4.10156H2.11035L2.60305 11.0202ZM6.96163 5.98245C6.97134 5.78852 7.13669 5.63897 7.3303 5.64888C7.52423 5.65859 7.67357 5.82366 7.66387 6.01755L7.47637 9.76755C7.46697 9.9555 7.31162 10.1016 7.12553 10.1016C6.9231 10.1016 6.76412 9.93227 6.77411 9.73245L6.96163 5.98245ZM4.6702 5.64888C4.86386 5.63916 5.02919 5.78855 5.03887 5.98245L5.22637 9.73245C5.23635 9.93237 5.07726 10.1016 4.87495 10.1016C4.68885 10.1016 4.53351 9.9555 4.52411 9.76755L4.33661 6.01755C4.32693 5.82366 4.47627 5.65859 4.6702 5.64888Z" fill="#ABABAB"/>
</svg>
