<svg width="20" height="16" viewBox="0 0 20 16" fill="none" xmlns="http://www.w3.org/2000/svg">
<path d="M16.6636 5.35178C15.7393 1.66945 12.0049 -0.566325 8.32253 0.358027C5.44488 1.08041 3.35538 3.56752 3.14009 6.52661C1.09684 6.86356 -0.286409 8.79308 0.0505465 10.8363C0.350084 12.6528 1.92405 13.9831 3.76502 13.9758H6.88968V12.7259H3.76502C2.38447 12.7259 1.2653 11.6068 1.2653 10.2262C1.2653 8.84565 2.38447 7.72648 3.76502 7.72648C4.11018 7.72648 4.38995 7.4467 4.38995 7.10155C4.38683 3.99528 6.90245 1.47462 10.0087 1.47154C12.6976 1.46884 15.0123 3.36981 15.5325 6.00792C15.5838 6.27132 15.7976 6.47255 16.0637 6.50786C17.7722 6.75116 18.9599 8.33337 18.7166 10.0418C18.4982 11.5759 17.1883 12.7182 15.6387 12.7259H13.139V13.9758H15.6387C18.0547 13.9685 20.0073 12.004 20 9.58803C19.9939 7.57692 18.6173 5.82903 16.6636 5.35178Z" fill="#6E6E6E"/>
<path d="M9.57102 7.90769L7.07129 10.4074L7.95244 11.2886L9.38979 9.85747V15.8506H10.6396V9.85747L12.0707 11.2886L12.9519 10.4074L10.4522 7.90769C10.2084 7.66537 9.81478 7.66537 9.57102 7.90769Z" fill="#6E6E6E"/>
</svg>
